# xmcd CD database file
# Generated: Fri Dec 22 19:24:49 2000 by WSPse's MP3c
#
# Track frame offsets:
#       150
#       39591
#       59206
#       64835
#       91850
#       132362
#       244132
#
# Disc length: 3473 seconds
#
# Revision: 0
# Processed by: cddbd v1.4b41PL1 Copyright (c) Steve Scherf et al.
# Submitted via: MP3c 0.26
#   WSPse mp3c-0.26 (NLS) - ENGLISH (Aug 13 2000)
#
DISCID=640d8f07
DTITLE=James Brown - Live in Atlanta
DYEAR=1900
DGENRE=
TTITLE0=Cold Sweat/I Can't Stand Myself/Papa's Got a Brand New Bag/I Got You
TTITLE1=Sex Machine
TTITLE2=Hot Pants
TTITLE3=Goergia On My Mind
TTITLE4=Please, Please, Please (Medly)
TTITLE5=It's a Man's Man's Man's World (Medly)
TTITLE6=I Got The Feeling
EXTD=
EXTT0=
EXTT1=
EXTT2=
EXTT3=
EXTT4=
EXTT5=
EXTT6=
PLAYORDER=
